<?xml version="1.0" encoding="utf-8"?>
<!-- Generator: Adobe Illustrator 26.0.3, SVG Export Plug-In . SVG Version: 6.00 Build 0)  -->
<svg version="1.1" id="Camada_1" xmlns="http://www.w3.org/2000/svg" xmlns:xlink="http://www.w3.org/1999/xlink" x="0px" y="0px"
	 viewBox="0 0 1080 1080" style="enable-background:new 0 0 1080 1080;" xml:space="preserve">
<style type="text/css">
	.st0{fill:#ED1A24;}
	.st1{fill:#FFFFFF;}
	.st2{fill:#ED1A23;}
</style>
<g>
	<path class="st0" d="M540,694.1c-112.2,0-224.4,0-336.6,0c-3.7,0-3.4,0.5-3.4-3.4c0-100.4,0-200.8,0-301.2c0-3.3,0-3.3,3.3-3.3
		c224.6,0,449.3,0,673.9,0c3.3,0,3.3,0,3.3,3.3c0,100.5,0,200.9,0,301.4c0,3.2,0,3.2-3.2,3.2C764.9,694.1,652.4,694.1,540,694.1z"/>
	<path d="M698.4,442.7c0.2,0,0.3,0.1,0.5,0.1c0,1,0,1.9,0,2.9c0,68.9,0,137.8-0.1,206.8c0,2.3,0.7,2.9,2.9,2.9
		c22.8-0.1,45.6,0,68.4-0.1c0.8,0,1.6-0.1,2.5-0.1c0-15.3,0-30.5,0-45.9c-11,0-21.8,0-32.8,0c0-14.3,0-28.3,0-42.6c1,0,1.9,0,2.8,0
		c8.7,0,17.4-0.1,26,0c2,0,2.6-0.6,2.6-2.6c-0.1-14.2-0.1-28.4,0-42.6c0-2.1-0.7-2.5-2.6-2.5c-9.1,0.1-18.1,0-27.2,0.1
		c-2.1,0-2.6-0.6-2.6-2.7c0.1-13.6,0-27.2,0-40.8c0-0.8,0.1-1.6,0.1-2.7c11.3,0,22.4,0,33.7,0c0-14.3,0-28.3,0-42.6
		c-1.1,0-2.1,0-3,0c-36.1,0-72.2,0-108.3,0c-0.5,0-0.9,0-1.4,0c-1.3-0.1-1.9,0.5-2.1,1.8c-0.6,4.1-1.3,8.2-2,12.3
		c-4.4,25.3-8.7,50.5-13.1,75.8c-1.4,8-2.7,16-4.2,24.5c-0.3-1-0.5-1.3-0.6-1.6c-2-12.1-4-24.1-5.9-36.2c-4.1-25-8.1-50-12.1-75.1
		c-0.3-1.9-1.1-2.4-2.9-2.4c-11.9,0.1-23.9,0-35.8,0c-0.7,0-1.5,0.1-2.6,0.1c1.6,11.9,3.1,23.6,4.8,35.9
		c-4.6-11.5-10.7-21.3-20.4-28.3c-4.7-3.4-9.6-6.8-15.7-6.8c-20.9-0.1-41.8,0-62.7,0c-0.8,0-1.6,0.1-2.6,0.1c0,66.6,0,133,0,199.3
		c-0.4-0.7-0.6-1.4-0.7-2.2c-5-32-9.9-63.9-14.9-95.9c-3-19.1-5.9-38.2-8.9-57.2c-2.2-14.3-4.4-28.6-6.6-42.9c-0.2-1.3-0.5-2-2-2
		c-15.8,0-31.6,0-47.3,0c-1.3,0-1.8,0.5-2,1.8c-1.6,10.5-3.3,21-5,31.5c-3.1,19.3-6.1,38.6-9.2,57.9c-4,25-8.1,50-12.1,75
		c-1.7,10.7-3.4,21.4-5.1,32.1c-0.1,0-0.3,0-0.4,0c0-0.9,0-1.9,0-2.8c0-64.2,0-128.5,0.1-192.7c0-2.4-0.7-2.9-2.9-2.9
		c-14.9,0.1-29.9,0.1-44.9,0c-1.6,0-2.3,0.4-2.7,2.1c-5,23.1-10.1,46.3-15.2,69.4c-1.6,7.1-3.1,14.2-4.7,21.3
		c-1.5-5.7-2.7-11.5-3.8-17.2c-4.7-24.5-9.4-49-14.1-73.5c-0.3-1.5-0.9-2.1-2.5-2.1c-15.7,0.1-31.4,0.1-47.1,0
		c-1.9,0-2.5,0.5-2.5,2.4c0,73.6,0,147.2,0,220.8c0,1.8,0.4,2.5,2.4,2.4c12.2-0.3,24.3-0.5,36.5-0.7c0.9,0,1.8-0.1,2.8-0.2
		c0-26.5,0-52.8,0-79c0.4,0.5,0.6,1.1,0.7,1.7c5.6,25.3,11.2,50.7,16.8,76c0.4,1.7,1,2.4,2.8,2.3c5.4-0.1,10.9-0.1,16.3,0
		c1.7,0,2.5-0.5,2.9-2.2c6.1-25.7,12.3-51.3,18.5-77c0.1-0.5,0.3-1,0.5-1.5c0.1,0,0.2,0.1,0.3,0.1c0,0.4,0,0.8,0,1.1
		c0,25.6,0,51.2,0,76.8c0,1.9,0.3,2.7,2.6,2.7c23.9-0.1,47.7-0.1,71.6,0c1.6,0,2.4-0.4,2.8-2.1c1.6-5.7,3.6-11.4,5.2-17.1
		c0.5-1.8,1.3-2.5,3.3-2.5c7.4,0.1,14.8,0,22.2,0c1.9,0,3.7,0,5.8,0c1.2,6.4,2.5,12.6,3.5,18.8c0.4,2.2,1.2,2.7,3.4,2.7
		c25-0.1,50-0.1,75,0c2.3,0,2.9-0.6,2.9-2.9c-0.1-22.8-0.1-45.6-0.1-68.4c0-0.8,0-1.5,0-2.3c0.6,0.4,0.7,0.8,0.9,1.2
		c8.7,23.4,17.5,46.8,26.2,70.2c0.6,1.7,1.4,2.3,3.2,2.3c11.6-0.1,23.3,0,34.9-0.1c0.8,0,1.6-0.1,2.6-0.2c-0.4-1.2-0.6-2-0.9-2.9
		c-9.1-27-18.2-54-27.2-81.1c-0.4-1.1-0.9-1.9,0.3-3.2c3.7-4,7.5-7.9,10.4-12.5c7.9-12.1,11.8-25.9,14.4-40c0.1-0.6,0.3-1.2,0.4-1.8
		c4.2,22.7,8,45.4,11.8,68.1c4,23.8,7.9,47.6,11.8,71.4c0.3,1.6,1,1.9,2.4,1.9c13.9,0,27.8-0.1,41.7,0c1.7,0,2.2-0.6,2.4-2.1
		c2.1-12.3,4.4-24.6,6.5-37c4.1-23.7,8.2-47.4,12.4-71.1c4.3-24.7,8.8-49.5,13.1-74.2C695.2,461.5,696.8,452.1,698.4,442.7z"/>
	<path d="M825.9,610.2c0-1.4,0-2.3,0-3.3c0-58.1,0-116.2,0-174.3c0-2.9,0-2.9-3-2.9c-10.8,0-21.6,0-32.4,0c-3,0-3,0-3,3
		c0,27.4,0,54.8,0,82.2c0,46.2,0,92.4,0,138.6c0,2.2,0.6,2.8,2.8,2.8c21.8-0.1,43.6-0.1,65.4,0c2,0,2.6-0.5,2.6-2.5
		c-0.1-13.7-0.1-27.3,0-41c0-1.9-0.5-2.5-2.4-2.5c-7.8,0.1-15.6,0-23.3,0C830.4,610.2,828.3,610.2,825.9,610.2z"/>
	<path d="M846.8,457.8c9,0,16.1-6.9,16.1-15.8c0.1-8.9-7.2-16.3-16-16.3c-8.8,0-16,7.2-16.1,15.9
		C830.8,450.8,837.7,457.8,846.8,457.8z"/>
	<path class="st1" d="M698.4,442.7c-1.6,9.4-3.3,18.8-4.9,28.2c-4.4,24.7-8.8,49.4-13.1,74.2c-4.2,23.7-8.2,47.4-12.4,71.1
		c-2.2,12.3-4.4,24.6-6.5,37c-0.3,1.5-0.8,2.1-2.4,2.1c-13.9-0.1-27.8-0.1-41.7,0c-1.4,0-2.1-0.3-2.4-1.9
		c-3.9-23.8-7.8-47.6-11.8-71.4c-3.8-22.7-7.6-45.4-11.8-68.1c-0.1,0.6-0.3,1.2-0.4,1.8c-2.6,14.1-6.5,27.8-14.4,40
		c-2.9,4.5-6.7,8.5-10.4,12.5c-1.2,1.3-0.7,2.1-0.3,3.2c9.1,27,18.2,54,27.2,81.1c0.3,0.8,0.5,1.7,0.9,2.9c-1,0.1-1.8,0.2-2.6,0.2
		c-11.6,0-23.3,0-34.9,0.1c-1.8,0-2.6-0.6-3.2-2.3c-8.7-23.4-17.4-46.8-26.2-70.2c-0.2-0.4-0.3-0.8-0.9-1.2c0,0.8,0,1.5,0,2.3
		c0,22.8,0,45.6,0.1,68.4c0,2.3-0.6,2.9-2.9,2.9c-25-0.1-50-0.1-75,0c-2.1,0-3-0.5-3.4-2.7c-1-6.2-2.3-12.4-3.5-18.8
		c-2.1,0-3.9,0-5.8,0c-7.4,0-14.8,0.1-22.2,0c-2,0-2.7,0.6-3.3,2.5c-1.6,5.7-3.6,11.4-5.2,17.1c-0.5,1.7-1.3,2.1-2.8,2.1
		c-23.9,0-47.7-0.1-71.6,0c-2.2,0-2.6-0.8-2.6-2.7c0.1-25.6,0-51.2,0-76.8c0-0.4,0-0.8,0-1.1c-0.1,0-0.2-0.1-0.3-0.1
		c-0.2,0.5-0.4,1-0.5,1.5c-6.2,25.7-12.4,51.3-18.5,77c-0.4,1.8-1.1,2.3-2.9,2.2c-5.4-0.1-10.9-0.1-16.3,0c-1.8,0-2.4-0.6-2.8-2.3
		c-5.5-25.3-11.2-50.7-16.8-76c-0.1-0.6-0.3-1.1-0.7-1.7c0,26.3,0,52.6,0,79c-1.1,0.1-1.9,0.2-2.8,0.2c-12.2,0.2-24.3,0.4-36.5,0.7
		c-2,0-2.4-0.6-2.4-2.4c0-73.6,0-147.2,0-220.8c0-1.9,0.6-2.4,2.5-2.4c15.7,0.1,31.4,0.1,47.1,0c1.7,0,2.2,0.6,2.5,2.1
		c4.7,24.5,9.4,49,14.1,73.5c1.1,5.7,2.3,11.5,3.8,17.2c1.6-7.1,3.1-14.2,4.7-21.3c5.1-23.1,10.2-46.2,15.2-69.4
		c0.4-1.8,1.1-2.1,2.7-2.1c15,0,29.9,0.1,44.9,0c2.2,0,2.9,0.5,2.9,2.9C368,496.7,368,561,368,625.2c0,0.9,0,1.9,0,2.8
		c0.1,0,0.3,0,0.4,0c1.7-10.7,3.3-21.4,5.1-32.1c4-25,8.1-50,12.1-75c3.1-19.3,6.1-38.6,9.2-57.9c1.7-10.5,3.4-21,5-31.5
		c0.2-1.3,0.7-1.8,2-1.8c15.8,0,31.6,0,47.3,0c1.6,0,1.8,0.8,2,2c2.2,14.3,4.4,28.6,6.6,42.9c3,19.1,5.9,38.2,8.9,57.2
		c5,32,9.9,63.9,14.9,95.9c0.1,0.7,0.3,1.5,0.7,2.2c0-66.4,0-132.7,0-199.3c0.9,0,1.7-0.1,2.6-0.1c20.9,0,41.8-0.1,62.7,0
		c6.1,0,11,3.4,15.7,6.8c9.7,7.1,15.9,16.8,20.4,28.3c-1.6-12.3-3.2-24-4.8-35.9c1.1-0.1,1.9-0.1,2.6-0.1c11.9,0,23.9,0,35.8,0
		c1.8,0,2.6,0.5,2.9,2.4c4,25,8,50,12.1,75.1c2,12.1,4,24.1,5.9,36.2c0.1,0.4,0.2,0.7,0.6,1.6c1.5-8.6,2.8-16.6,4.2-24.5
		c4.4-25.3,8.7-50.5,13.1-75.8c0.7-4.1,1.4-8.2,2-12.3c0.2-1.3,0.7-1.9,2.1-1.8c0.4,0,0.9,0,1.4,0c36.1,0,72.2,0,108.3,0
		c1,0,1.9,0,3,0c0,14.3,0,28.3,0,42.6c-11.2,0-22.4,0-33.7,0c-0.1,1.1-0.1,1.9-0.1,2.7c0,13.6,0,27.2,0,40.8c0,2,0.5,2.7,2.6,2.7
		c9.1-0.1,18.1,0,27.2-0.1c1.9,0,2.6,0.4,2.6,2.5c-0.1,14.2-0.1,28.4,0,42.6c0,2-0.6,2.6-2.6,2.6c-8.7-0.1-17.4,0-26,0
		c-0.9,0-1.8,0-2.8,0c0,14.3,0,28.3,0,42.6c10.9,0,21.8,0,32.8,0c0,15.4,0,30.5,0,45.9c-0.9,0-1.7,0.1-2.5,0.1
		c-22.8,0-45.6,0-68.4,0.1c-2.3,0-2.9-0.6-2.9-2.9c0.1-68.9,0.1-137.8,0.1-206.8c0-1,0-1.9,0-2.9
		C698.8,442.8,698.6,442.7,698.4,442.7z M525.4,470.6c0,22.3,0,44.3,0,66.5c0.4,0,0.7,0.1,1,0.1c8.9-0.8,15.4-5.2,19.2-13.1
		c6.4-13.4,5.5-26.9-0.9-40.1c-2.1-4.3-5.1-7.8-9.2-10.4C532.5,471.6,529.2,470.7,525.4,470.6z M426,523.1c-0.1,0-0.3,0-0.4,0
		c-3.2,22.1-6.4,44.1-9.5,66.3c7.2,0,14,0,21.1,0C433.4,567.2,429.7,545.1,426,523.1z"/>
	<path class="st1" d="M825.9,610.2c2.5,0,4.6,0,6.7,0c7.8,0,15.6,0.1,23.3,0c1.9,0,2.4,0.6,2.4,2.5c-0.1,13.7-0.1,27.3,0,41
		c0,2-0.6,2.5-2.6,2.5c-21.8-0.1-43.6-0.1-65.4,0c-2.2,0-2.8-0.6-2.8-2.8c0.1-46.2,0-92.4,0-138.6c0-27.4,0-54.8,0-82.2
		c0-2.9,0-3,3-3c10.8,0,21.6,0,32.4,0c3,0,3,0,3,2.9c0,58.1,0,116.2,0,174.3C825.9,607.9,825.9,608.9,825.9,610.2z"/>
	<path class="st1" d="M846.8,457.8c-9.1,0-16-7-15.9-16.2c0.1-8.8,7.3-16,16.1-15.9c8.8,0,16.1,7.4,16,16.3
		C862.9,450.9,855.8,457.8,846.8,457.8z M846.9,454.7c7.2,0,13-5.7,13-12.8c0-7-6-13-13-13c-7,0.1-12.8,5.9-12.8,12.9
		C833.9,449,839.6,454.7,846.9,454.7z"/>
	<path class="st2" d="M525.4,470.6c3.7,0,7,1,10.1,3c4.1,2.6,7.1,6.1,9.2,10.4c6.4,13.2,7.3,26.7,0.9,40.1
		c-3.8,8-10.3,12.4-19.2,13.1c-0.3,0-0.6-0.1-1-0.1C525.4,515,525.4,492.9,525.4,470.6z"/>
	<path class="st2" d="M426,523.1c3.7,22,7.4,44.1,11.2,66.3c-7.1,0-13.9,0-21.1,0c3.2-22.1,6.4-44.2,9.5-66.3
		C425.7,523.1,425.9,523.1,426,523.1z"/>
	<path class="st0" d="M846.9,454.7c-7.3,0-12.9-5.7-12.9-12.9c0.1-7,5.9-12.8,12.8-12.9c7-0.1,13,5.9,13,13
		C859.9,449,854.1,454.7,846.9,454.7z M850.2,442.4c0.3-0.1,0.9-0.3,1.4-0.6c1.6-1,2.1-2.5,1.9-4.3c-0.2-1.7-1.2-3.1-3-3.3
		c-3-0.2-6.1-0.1-9.4-0.1c0,4.8,0,9.4,0,13.9c0,0.5,0.7,0.9,1.1,1.3c0.4-0.5,1.1-1,1.1-1.5c0.1-1.7,0.1-3.4,0.1-5
		c3-0.8,4.8,0.1,6.1,2.4c0.5,0.9,1,1.9,1.7,2.7c0.8,0.8,1.8,1.2,2.8,1.8c0.2-0.3,0.5-0.5,0.7-0.8
		C853.1,446.8,851.7,444.6,850.2,442.4z"/>
	<path class="st1" d="M850.2,442.4c1.5,2.2,3,4.4,4.5,6.6c-0.2,0.3-0.5,0.5-0.7,0.8c-0.9-0.6-2-1-2.8-1.8c-0.7-0.7-1.2-1.7-1.7-2.7
		c-1.3-2.3-3.1-3.2-6.1-2.4c0,1.6,0.1,3.3-0.1,5c0,0.5-0.7,1-1.1,1.5c-0.4-0.4-1.1-0.9-1.1-1.3c-0.1-4.6,0-9.2,0-13.9
		c3.3,0,6.3-0.2,9.4,0.1c1.8,0.1,2.7,1.5,3,3.3c0.2,1.8-0.3,3.3-1.9,4.3C851,442.1,850.5,442.3,850.2,442.4z M843.6,440.5
		c1.9,0,3.7,0.2,5.3-0.1c0.8-0.2,2-1.3,2-2.1c0-0.7-1.1-2-1.9-2.2c-1.7-0.3-3.5-0.1-5.4-0.1C843.6,437.6,843.6,438.9,843.6,440.5z"
		/>
	<path class="st0" d="M843.6,440.5c0-1.6,0-2.9,0-4.5c1.9,0,3.7-0.2,5.4,0.1c0.8,0.2,2,1.4,1.9,2.2c0,0.8-1.2,1.9-2,2.1
		C847.3,440.7,845.5,440.5,843.6,440.5z"/>
</g>
</svg>
